<svg fill="none" xmlns="http://www.w3.org/2000/svg" viewBox="3.13 5.2 39.85 37.6"> <path fill-rule="evenodd" clip-rule="evenodd" d="M19.6937 31.11C17.783 34.4232 16.5845 38.5381 16.024 41.571C15.8734 42.3856 15.091 42.9239 14.2764 42.7734C13.4617 42.6229 12.9234 41.8404 13.0739 41.0258C13.6719 37.7903 14.9572 33.318 17.0949 29.6113C19.1996 25.9617 22.3974 22.6241 26.9332 22.6241C31.469 22.6241 34.6669 25.9617 36.7715 29.6113C38.9092 33.318 40.1945 37.7903 40.7925 41.0258C40.943 41.8404 40.4047 42.6229 39.59 42.7734C38.7754 42.9239 37.993 42.3856 37.8424 41.571C37.2819 38.5381 36.0834 34.4232 34.1727 31.11C32.229 27.7395 29.8139 25.6241 26.9332 25.6241C24.0525 25.6241 21.6374 27.7395 19.6937 31.11Z" fill="#34BF77"/> <path fill-rule="evenodd" clip-rule="evenodd" d="M8.16353 35.7299C7.17304 37.2939 6.52671 39.2114 6.05429 40.6287C5.79232 41.4146 4.94284 41.8393 4.15692 41.5774C3.37101 41.3154 2.94627 40.4659 3.20824 39.68L3.2248 39.6303C3.68306 38.2553 4.4272 36.0225 5.62907 34.1248C6.8353 32.2202 8.74042 30.2911 11.6006 30.2911C14.4144 30.2911 16.3049 32.1596 17.5117 34.0302C17.9608 34.7264 17.7606 35.6548 17.0644 36.1039C16.3683 36.553 15.4399 36.3527 14.9908 35.6566C14.0004 34.1213 12.901 33.2911 11.6006 33.2911C10.2792 33.2911 9.16427 34.1498 8.16353 35.7299Z" fill="#34BF77"/> <path fill-rule="evenodd" clip-rule="evenodd" d="M27.6301 7.29211C28.4585 7.29211 29.1301 7.96369 29.1301 8.79211V24.1682C29.1301 24.9967 28.4585 25.6682 27.6301 25.6682C26.8016 25.6682 26.1301 24.9967 26.1301 24.1682V8.79211C26.1301 7.96369 26.8016 7.29211 27.6301 7.29211Z" fill="#34BF77"/> <path fill-rule="evenodd" clip-rule="evenodd" d="M26.1301 6.70129C26.1301 5.87287 26.8016 5.20129 27.6301 5.20129H41.4779C42.3064 5.20129 42.9779 5.87287 42.9779 6.70129V17.8522C42.9779 18.6807 42.3064 19.3522 41.4779 19.3522H27.6301C26.8016 19.3522 26.1301 18.6807 26.1301 17.8522V6.70129ZM29.1301 8.20129V16.3522H39.9779V8.20129H29.1301Z" fill="#34BF77"/> <path fill-rule="evenodd" clip-rule="evenodd" d="M20.6201 29.6522C22.6412 30.1501 24.7555 30.4145 26.9332 30.4145C29.1109 30.4145 31.225 30.1501 33.2462 29.6522C31.4799 27.1436 29.3736 25.6241 26.9332 25.6241C24.4928 25.6241 22.3863 27.1436 20.6201 29.6522ZM16.9832 29.8068C19.0899 26.076 22.3191 22.6241 26.9332 22.6241C31.5473 22.6241 34.7764 26.076 36.883 29.8068L37.7833 31.4012L36.0429 31.9701C33.1737 32.908 30.1111 33.4145 26.9332 33.4145C23.7552 33.4145 20.6926 32.908 17.8233 31.9701L16.0829 31.4012L16.9832 29.8068Z" fill="#34BF77"/> </svg>