<svg fill="none" xmlns="http://www.w3.org/2000/svg" viewBox="3.36 3.14 41.27 43.64"> <path fill-rule="evenodd" clip-rule="evenodd" d="M34.8279 8.28689C29.238 1.42879 18.7615 1.42878 13.1716 8.28689C12.2265 9.44633 11.4738 10.75 10.9423 12.1482C9.37375 16.2736 9.89114 20.5988 11.8879 24.0731C8.90681 28.3578 6.29847 32.8912 4.09201 37.6237L3.50381 38.8853C3.25202 39.4253 3.34375 40.0632 3.73751 40.5104C4.13127 40.9576 4.75238 41.1294 5.31995 40.948L11.906 38.8431L13.3761 45.5992C13.5127 46.227 14.0341 46.6981 14.6725 46.7707C15.3109 46.8432 15.9246 46.501 16.1986 45.9198L16.4121 45.4668C18.6148 40.7939 21.1658 36.2945 24.0433 32.0064C26.5051 35.4584 28.6445 39.1311 30.4334 42.9784L31.7979 45.9127C32.0694 46.4966 32.6834 46.8421 33.3234 46.7711C33.9635 46.7001 34.4868 46.2284 34.6237 45.5992L36.0938 38.8431L42.6799 40.948C43.2472 41.1293 43.868 40.9578 44.2618 40.511C44.6556 40.0642 44.7478 39.4267 44.4966 38.8867L44.1865 38.2198C41.8933 33.2883 39.1905 28.5588 36.1071 24.081C38.1076 20.6053 38.6269 16.2767 37.0573 12.1482C36.5257 10.75 35.773 9.44633 34.8279 8.28689ZM34.2202 26.6405C32.3277 28.6775 29.8061 30.1753 26.8553 30.7876C29.0389 33.9077 30.972 37.1968 32.6361 40.6242L33.5132 36.5931C33.6031 36.1801 33.863 35.8243 34.2289 35.613C34.5949 35.4017 35.0331 35.3546 35.4356 35.4832L40.2824 37.0322C38.4852 33.4427 36.4603 29.9717 34.2202 26.6405ZM21.2373 30.8066C18.2417 30.2058 15.6836 28.6941 13.7703 26.6307C11.5129 29.9571 9.48535 33.434 7.70198 37.0372L12.5642 35.4832C12.9668 35.3546 13.4049 35.4017 13.7709 35.613C14.1368 35.8243 14.3967 36.1801 14.4866 36.5931L15.3925 40.7562C17.1583 37.3361 19.1095 34.0147 21.2373 30.8066ZM15.497 10.1823C19.8864 4.79699 28.1131 4.79699 32.5025 10.1823C33.2446 11.0927 33.8357 12.1165 34.2531 13.2144C36.7222 19.7084 32.6089 26.8329 25.7503 27.9416C24.5908 28.129 23.4087 28.129 22.2492 27.9416C15.3907 26.8329 11.2773 19.7084 13.7464 13.2144C14.1638 12.1165 14.7549 11.0927 15.497 10.1823Z" fill="#34BF77"/> </svg>