<svg fill="none" xmlns="http://www.w3.org/2000/svg" viewBox="3.65 5.48 40.7 37.03"> <path fill-rule="evenodd" clip-rule="evenodd" d="M6.64844 17.8233C6.65293 23.6058 10.1375 29.039 14.2767 33.1253C16.3267 35.1491 18.4791 36.7828 20.3148 37.9012C21.2332 38.4608 22.0522 38.879 22.7224 39.1525C23.4305 39.4415 23.8454 39.5156 24.0005 39.5156C24.1557 39.5156 24.5705 39.4415 25.2787 39.1525C25.9489 38.879 26.7678 38.4608 27.6863 37.9012C29.5219 36.7828 31.6744 35.1491 33.7244 33.1253C37.8636 29.039 41.3482 23.6058 41.3527 17.8233C41.2926 14.0366 39.1223 10.4879 36.1613 9.10816C34.7132 8.43342 33.041 8.25364 31.2248 8.83011C29.3885 9.41299 27.3086 10.8023 25.1633 13.4346C24.8784 13.7841 24.4514 13.9869 24.0005 13.9869C23.5496 13.9869 23.1226 13.7841 22.8378 13.4346C20.6924 10.8023 18.6125 9.41299 16.7762 8.83011C14.9601 8.25364 13.2878 8.43342 11.8398 9.10816C8.87879 10.4879 6.70851 14.0366 6.64844 17.8233ZM24.0005 10.2111C21.9444 8.03177 19.8122 6.64629 17.6839 5.9707C15.1311 5.1604 12.6833 5.40538 10.5727 6.3889C6.41929 8.32431 3.7191 13.0206 3.6486 17.7899L3.64844 17.7899V17.8121C3.64844 24.769 7.78596 30.9332 12.1691 35.2602C14.3815 37.4443 16.7169 39.2221 18.7539 40.4631C19.7718 41.0833 20.7354 41.5818 21.5889 41.9301C22.4045 42.263 23.2546 42.5156 24.0005 42.5156C24.7464 42.5156 25.5965 42.263 26.4121 41.9301C27.2657 41.5818 28.2293 41.0833 29.2472 40.4631C31.2842 39.2221 33.6196 37.4443 35.832 35.2602C40.2151 30.9332 44.3527 24.769 44.3527 17.8121H44.3528L44.3525 17.7899C44.282 13.0206 41.5818 8.3243 37.4284 6.3889C35.3177 5.40538 32.87 5.1604 30.3172 5.9707C28.1888 6.64629 26.0567 8.03177 24.0005 10.2111Z" fill="#34BF77"/> </svg>