<svg fill="none" xmlns="http://www.w3.org/2000/svg" viewBox="2.37 6.96 44.59 35.16"> <path fill-rule="evenodd" clip-rule="evenodd" d="M28.1961 13.5777C28.6022 10.6747 26.3478 8.08301 23.4165 8.08301C21.6909 8.08301 20.0967 9.00428 19.2351 10.4993L13.5768 20.3172C12.7185 18.1778 10.6252 16.667 8.17897 16.667C4.96813 16.667 2.36523 19.2699 2.36523 22.4807V36.3024C2.36523 39.5132 4.96813 42.1161 8.17897 42.1161C10.4137 42.1161 12.354 40.8552 13.3271 39.006H13.9007C16.6785 39.7968 22.2377 41.3043 28.7322 41.3043C30.5243 41.3043 32.06 40.3209 33.2683 39.1015C34.4927 37.8657 35.5503 36.2226 36.4119 34.5044C38.1186 31.1013 39.2432 27.0187 39.2432 24.4121C39.2432 21.6123 37.9753 19.5515 36.3604 18.2232C34.7958 16.9361 32.8642 16.2986 31.3481 16.2986H27.8155L28.1961 13.5777ZM21.8343 11.9973C22.1603 11.4316 22.7636 11.083 23.4165 11.083C24.5257 11.083 25.3787 12.0637 25.2251 13.1622L24.6056 17.5908C24.5455 18.0207 24.6745 18.4556 24.9594 18.7831C25.2443 19.1106 25.6571 19.2986 26.0911 19.2986H31.3481C32.1303 19.2986 33.3963 19.6695 34.4546 20.54C35.4628 21.3693 36.2432 22.6152 36.2432 24.4121C36.2432 26.4022 35.3069 30.0157 33.7303 33.1596C32.9503 34.7148 32.0607 36.0579 31.1372 36.9899C30.1976 37.9383 29.3847 38.3043 28.7322 38.3043C22.5177 38.3043 17.1815 36.8234 14.5225 36.0637C14.3885 36.0254 14.2498 36.006 14.1105 36.006H13.9927V23.8953H14.1105C14.6468 23.8953 15.1423 23.609 15.4101 23.1443L21.8343 11.9973ZM5.36523 22.4807C5.36523 20.9267 6.62499 19.667 8.17897 19.667C9.73295 19.667 10.9927 20.9267 10.9927 22.4807V36.3024C10.9927 37.8564 9.73295 39.1161 8.17897 39.1161C6.62499 39.1161 5.36523 37.8564 5.36523 36.3024V22.4807Z" fill="#34BF77"/> <path d="M36.1458 8.73411C36.3002 7.91886 35.7661 7.13544 34.9529 6.98431C34.1397 6.83317 33.3553 7.37155 33.201 8.1868L32.7854 11.1688C32.631 11.984 33.1651 12.7675 33.9783 12.9186C34.7915 13.0697 35.5758 12.5314 35.7302 11.7161L36.1458 8.73411Z" fill="#34BF77"/> <path d="M46.8985 16.7727C47.1266 17.5688 46.6665 18.4021 45.8709 18.634L42.932 19.5386C42.1363 19.7705 41.3064 19.3132 41.0783 18.5172C40.8501 17.7211 41.3102 16.8878 42.1059 16.6559L45.0448 15.7513C45.8404 15.5194 46.6704 15.9767 46.8985 16.7727Z" fill="#34BF77"/> <path d="M42.8015 8.47475C43.4727 8.95715 43.624 9.89489 43.1396 10.5693L41.1186 13.7274C40.6342 14.4018 39.6974 14.5574 39.0263 14.075C38.3551 13.5926 38.2038 12.6548 38.6882 11.9805L40.7092 8.82232C41.1936 8.14796 42.1304 7.99234 42.8015 8.47475Z" fill="#34BF77"/> </svg>